HIERARCHY
ROOT Hips
{
    OFFSET 0.000000 0.000000 0.000000
    CHANNELS 6 Xposition Yposition Zposition Zrotation Xrotation Yrotation
    JOINT Spine
    {
        OFFSET -0.000000 7.897928 0.000000
        CHANNELS 3 Zrotation Xrotation Yrotation
        JOINT Spine1
        {
            OFFSET -0.000000 22.881742 0.000000
            CHANNELS 3 Zrotation Xrotation Yrotation
            JOINT Neck
            {
                OFFSET -0.000000 22.787771 2.071616
                CHANNELS 3 Zrotation Xrotation Yrotation
                JOINT Head
                {
                    OFFSET -0.000000 13.484266 -1.926324
                    CHANNELS 3 Zrotation Xrotation Yrotation
                    End Site
                    {
                        OFFSET -0.000000 24.079046 0.000000
                    }
                }
            }
            JOINT LeftShoulder
            {
                OFFSET 3.854963 21.096247 -0.110468
                CHANNELS 3 Zrotation Xrotation Yrotation
                JOINT LeftArm
                {
                    OFFSET 10.572188 0.000000 0.000000
                    CHANNELS 3 Zrotation Xrotation Yrotation
                    JOINT LeftForeArm
                    {
                        OFFSET 34.932854 0.000000 0.000000
                        CHANNELS 3 Zrotation Xrotation Yrotation
                        JOINT LeftHand
                        {
                            OFFSET 23.279285 0.000000 0.000000
                            CHANNELS 3 Zrotation Xrotation Yrotation
                            End Site
                            {
                                OFFSET 14.447429 0.000000 0.000000
                            }
                        }
                    }
                }
            }
            JOINT RightShoulder
            {
                OFFSET -3.825334 21.096247 -0.110468
                CHANNELS 3 Zrotation Xrotation Yrotation
                JOINT RightArm
                {
                    OFFSET -10.572188 0.000000 0.000000
                    CHANNELS 3 Zrotation Xrotation Yrotation
                    JOINT RightForeArm
                    {
                        OFFSET -34.932854 0.000000 0.000000
                        CHANNELS 3 Zrotation Xrotation Yrotation
                        JOINT RightHand
                        {
                            OFFSET -23.279285 0.000000 0.000000
                            CHANNELS 3 Zrotation Xrotation Yrotation
                            End Site
                            {
                                OFFSET -14.447429 0.000000 0.000000
                            }
                        }
                    }
                }
            }
        }
    }
    JOINT LeftUpLeg
    {
        OFFSET 9.631618 0.000000 0.000000
        CHANNELS 3 Zrotation Xrotation Yrotation
        JOINT LeftLeg
        {
            OFFSET -0.000000 -35.385456 0.000000
            CHANNELS 3 Zrotation Xrotation Yrotation
            JOINT LeftFoot
            {
                OFFSET -0.000000 -43.284000 0.000000
                CHANNELS 3 Zrotation Xrotation Yrotation
                JOINT LeftToeBase
                {
                    OFFSET -0.000000 -6.260552 14.447429
                    CHANNELS 3 Zrotation Xrotation Yrotation
                    End Site
                    {
                        OFFSET -0.000000 0.000000 3.852648
                    }
                }
            }
        }
    }
    JOINT RightUpLeg
    {
        OFFSET -9.631618 0.000000 0.000000
        CHANNELS 3 Zrotation Xrotation Yrotation
        JOINT RightLeg
        {
            OFFSET -0.000000 -35.385456 0.000000
            CHANNELS 3 Zrotation Xrotation Yrotation
            JOINT RightFoot
            {
                OFFSET -0.000000 -43.284000 0.000000
                CHANNELS 3 Zrotation Xrotation Yrotation
                JOINT RightToeBase
                {
                    OFFSET -0.000000 -6.260552 14.447429
                    CHANNELS 3 Zrotation Xrotation Yrotation
                    End Site
                    {
                        OFFSET -0.000000 0.000000 3.852648
                    }
                }
            }
        }
    }
}
MOTION
Frames:    9
Frame Time:    0.008333
-99.577805    87.710930    40.418163    -3.774673    -0.420893    87.886192    0.432769    -5.479512    3.705950    -0.458966    9.663238    3.724062    -3.449105    10.247914    -17.128778    19.516966    -1.959372    -14.604918    -1.890131    12.346955    6.703788    -48.333561    51.751534    -15.320725    11.584501    -10.199341    -47.576256    -1.136193    -5.331673    21.219711    0.117098    12.162648    7.398109    30.684813    49.233566    35.541653    3.023530    -27.989742    27.573994    -7.107505    -28.233528    -7.487627    12.565454    -27.584814    5.083349    -28.192120    55.591339    13.185985    -1.643507    -7.801768    11.571064    0.000000    0.000000    0.000000    1.958462    -8.944313    2.918659    5.310266    14.199235    -3.805993    -6.910789    -10.769643    -14.776940    0.000000    0.000000    0.000000    
-98.769470    87.761139    40.450993    -3.734400    -0.284539    87.665253    0.455556    -5.543199    3.897226    -0.733862    9.862318    3.938509    -3.770048    9.649695    -17.279079    19.723686    -0.942117    -14.865222    -1.871233    12.369984    6.862678    -48.624023    51.597557    -15.044416    12.079079    -9.196285    -47.263016    -1.569275    -4.217701    21.203669    -0.140612    11.966118    7.496781    30.200844    48.720272    36.125591    3.038275    -28.224512    28.343468    -8.280528    -28.389780    -7.994432    12.249994    -28.303938    5.330121    -26.520281    53.889893    11.759490    -1.921408    -7.821626    11.630943    0.000000    0.000000    0.000000    1.811689    -8.048160    2.932940    5.284125    13.700439    -3.207655    -6.901890    -10.939067    -15.136609    0.000000    0.000000    0.000000    
-97.940155    87.786171    40.480568    -3.717338    -0.165854    87.562721    0.465112    -5.567181    4.032010    -0.937270    9.919822    4.090767    -3.748635    9.736606    -17.312675    19.621168    -1.001030    -14.910213    -1.994356    12.424335    7.044570    -48.804638    51.612568    -14.735356    12.786025    -8.261482    -46.966682    -2.299768    -3.138236    21.268856    -0.331449    11.850443    7.566443    29.777590    48.075974    36.596569    2.835861    -28.323257    28.856913    -7.884165    -28.502815    -7.615717    11.985364    -29.062456    5.264886    -25.341133    51.951836    10.654174    -2.792091    -7.704580    11.908315    0.000000    0.000000    0.000000    1.644496    -7.092645    2.954594    5.321186    13.032117    -3.322187    -6.823023    -11.177115    -14.967668    0.000000    0.000000    0.000000    
-97.130356    87.800011    40.503448    -3.669196    -0.026963    87.426979    0.339065    -5.283379    4.337785    -1.149264    9.461275    4.417268    -3.085863    10.138315    -17.341740    19.034956    -1.510029    -14.996648    -1.863444    12.958421    6.881021    -48.923508    51.383053    -14.889311    13.542736    -7.080949    -46.354141    -3.033886    -1.836611    21.191441    -0.077942    11.783620    7.343667    29.338997    47.709038    36.664497    2.679478    -28.580383    29.545008    -7.303648    -28.794147    -7.244678    11.759518    -29.793131    5.032117    -24.621006    49.929768    9.999187    -3.277189    -7.456313    12.435415    0.000000    0.000000    0.000000    1.463020    -6.183040    2.990309    5.333861    12.496000    -3.144637    -6.917766    -11.361451    -14.978585    0.000000    0.000000    0.000000    
-96.303642    87.792953    40.525860    -3.698915    0.022879    87.223297    0.887250    -5.299457    4.277338    -2.084589    9.499851    4.409561    -3.679222    10.019494    -17.241783    19.780256    -0.880995    -14.846292    -1.938228    12.824125    7.538874    -49.002445    51.680279    -14.316956    14.259821    -6.311939    -46.281258    -4.167978    -0.968658    21.068048    -0.207108    11.721484    8.028268    28.938745    47.116451    37.251926    2.453752    -28.909622    30.081556    -7.291959    -29.085163    -7.188941    11.479812    -30.341030    4.960095    -23.277119    47.657375    9.111897    -3.652951    -7.419393    12.618000    0.000000    0.000000    0.000000    1.370387    -5.360770    2.965536    5.341897    12.006481    -2.796302    -6.785723    -11.670257    -15.196459    0.000000    0.000000    0.000000    
-95.485672    87.775589    40.539143    -3.683739    0.111863    87.075638    0.735621    -5.181932    4.487994    -1.930496    9.321860    4.612153    -3.832311    10.079199    -17.313145    19.708088    -0.818416    -14.936028    -2.130531    12.921602    7.346552    -49.474445    51.618328    -13.751090    14.883904    -5.532396    -46.037319    -5.339018    -0.165317    20.991034    -0.434758    11.732381    7.842371    28.367128    46.598682    37.730423    2.358070    -29.196285    30.758677    -6.536231    -29.432587    -6.605970    11.217332    -30.866335    4.807511    -22.238440    45.409332    8.384835    -4.258184    -7.217519    13.047390    0.000000    0.000000    0.000000    1.229021    -4.500144    2.947248    5.351929    11.497730    -2.781965    -6.734549    -11.937868    -15.060096    0.000000    0.000000    0.000000    
-94.644516    87.732979    40.557526    -3.710712    0.111793    86.896881    0.967381    -5.612548    4.665414    -2.289359    10.098846    4.820332    -3.526791    10.310420    -17.338953    19.557306    -1.771121    -14.849524    -1.945424    12.807755    7.320782    -49.758427    51.640667    -13.637410    15.440032    -4.850169    -45.801910    -6.077710    0.598894    20.755392    -0.673844    11.411410    7.887076    27.687540    46.116337    38.415020    2.530156    -29.780151    31.774437    -6.542124    -30.058575    -6.971407    10.950033    -31.263973    4.809117    -20.874523    43.008118    7.704467    -4.351298    -7.027727    13.277053    0.000000    0.000000    0.000000    1.253991    -3.673130    2.603096    5.169530    11.056252    -2.273059    -6.742687    -12.220091    -15.008868    0.000000    0.000000    0.000000    
-93.841972    87.701538    40.563030    -3.809972    0.141231    86.701958    1.143514    -5.736973    4.824708    -2.602872    10.183807    4.999420    -3.638037    9.671947    -17.342838    19.339808    -0.795740    -15.022992    -1.949609    12.728469    7.398798    -49.940598    51.764988    -13.365561    15.655221    -4.245405    -45.651730    -7.124710    1.060340    21.086710    -0.885161    11.221284    8.194720    27.878929    45.376801    38.334377    2.277359    -29.847345    32.269424    -5.550459    -30.151411    -6.341773    10.611994    -31.681482    4.836354    -19.587164    40.528633    7.635485    -4.827969    -6.781580    13.193917    0.000000    0.000000    0.000000    1.126919    -3.042806    2.646125    5.285704    10.739195    -2.121448    -6.716242    -12.470805    -15.040840    0.000000    0.000000    0.000000    
-93.008171    87.633728    40.577473    -3.841049    0.094297    86.504990    1.245665    -5.601360    5.069205    -2.757023    9.869967    5.246415    -3.248549    10.074677    -17.278265    18.969019    -1.329110    -14.958237    -1.901564    13.009876    7.120049    -50.429676    51.621586    -12.955400    15.918881    -3.738047    -45.315895    -7.816348    1.539574    20.491928    -0.618275    11.189531    7.866595    26.822592    45.248894    38.912086    2.237886    -30.252375    33.228718    -5.887781    -30.539814    -6.498528    10.341372    -31.928869    4.678758    -18.407949    37.985939    7.284322    -5.294814    -6.766280    13.658420    0.000000    0.000000    0.000000    1.173554    -2.232540    2.614931    5.196986    10.259508    -2.150685    -6.627746    -12.753869    -14.792590    0.000000    0.000000    0.000000    
